<svg width="56" height="56" fill="none" xmlns="http://www.w3.org/2000/svg"><path fill-rule="evenodd" clip-rule="evenodd" d="M28 18.652c.077.01.156.015.235.015.447 0 .887-.006 1.32-.016v11.682h22.331c2.257 0 4.114-1.843 4.114-4.083v-5.833c0-2.24-1.857-4.084-4.114-4.084h-9.435c6.587-2.56 9.66-6.746 9.66-10.058 0-2.894-2.294-6.273-8.765-6.275C34.995 0 30.265 5.923 28 11.348 25.735 5.922 21.006 0 12.656 0 6.186 0 3.89 3.379 3.89 6.273c0 3.313 3.073 7.5 9.661 10.06H4.114C1.857 16.333 0 18.177 0 20.417v5.833c0 2.24 1.857 4.083 4.114 4.083h22.33V18.651c.434.01.875.016 1.322.016.078 0 .157-.005.234-.015Zm2.47-3.498c1.076-3.833 4.323-11.69 12.876-11.69 2.507 0 5.184.736 5.184 2.808 0 1.392-1.21 3.572-4.608 5.522-2.45 1.406-6.705 3.056-13.453 3.36Zm-4.026 19.068H4.667v17.766c0 2.201 1.86 4.012 4.12 4.012h17.657V34.222Zm24.89 17.766V34.222H29.555V56h17.657c2.26 0 4.12-1.811 4.12-4.012ZM12.655 3.462c-2.507 0-5.186.738-5.186 2.811 0 2.947 5.332 8.318 18.058 8.883-1.074-3.836-4.321-11.694-12.872-11.694Z" fill="#FDD6BA"/></svg>