<svg width="55" height="39" fill="none" xmlns="http://www.w3.org/2000/svg"><path fill-rule="evenodd" clip-rule="evenodd" d="M4 0h3v3H4V0ZM0 15h3v3H0v-3ZM12.547 3.241h-2.524V0H37v27.13A8.058 8.058 0 0 0 34.212 33h-13.56c-.126-4.328-3.654-7.81-7.977-7.81-4.322 0-7.85 3.482-7.977 7.81H0V22.319h8.986a2.093 2.093 0 0 0 2.082-2.099c0-1.157-.934-2.1-2.082-2.1H6.37v-3.24h13.683a2.093 2.093 0 0 0 2.082-2.1c0-1.157-.934-2.099-2.082-2.099H0V7.44h12.675a2.093 2.093 0 0 0 2.082-2.1c0-1.118-1.033-2.099-2.21-2.099ZM38 34c0-2.757 2.019-5 4.5-5s4.5 2.243 4.5 5-2.019 5-4.5 5-4.5-2.243-4.5-5Zm2-30h6.57L54 15H40V4Zm0 14v7.378a8.213 8.213 0 0 1 2.022-.251c4.426 0 8.038 3.51 8.168 7.873H55V18H40ZM12.5 29C10.019 29 8 31.243 8 34s2.019 5 4.5 5 4.5-2.243 4.5-5-2.019-5-4.5-5Zm28.483 6.685h3.034v-3.37h-3.034v3.37Zm-26.966 0h-3.034v-3.37h3.034v3.37Z" fill="#FDD6BA"/></svg>