<svg width="56" height="56" fill="none" xmlns="http://www.w3.org/2000/svg"><path fill-rule="evenodd" clip-rule="evenodd" d="M45.467 10.192c5.623 5.726 9.133 12.943 9.883 20.317.766 7.511-1.413 14.294-6.13 19.093C45.12 53.778 39.552 56 33.323 56c-.938 0-1.89-.053-2.856-.154-7.243-.763-14.331-4.336-19.955-10.063C-1.197 33.863-2.88 16.187 6.758 6.373c9.631-9.817 26.997-8.099 38.709 3.819ZM25.698 31.139c4.517 1.26 8.676 2.44 12.512 5.422 3.008 2.34 5.151 5.312 7.318 8.318.997 1.384 2 2.775 3.094 4.114-1.265-11.148-6.768-20.724-17.892-24.01l-.518-.153c-4.864-1.432-9.305-2.74-13.352-6.126-2.602-2.18-4.518-4.885-6.445-7.607-.985-1.39-1.972-2.784-3.056-4.115 1.32 11.323 6.968 20.983 18.339 24.157Z" fill="#FDD6BA"/></svg>